<?xml version="1.0" encoding="UTF-8" standalone="no"?>
<svg
   xmlns:dc="http://purl.org/dc/elements/1.1/"
   xmlns:cc="http://creativecommons.org/ns#"
   xmlns:rdf="http://www.w3.org/1999/02/22-rdf-syntax-ns#"
   xmlns:svg="http://www.w3.org/2000/svg"
   xmlns="http://www.w3.org/2000/svg"
   id="svg4"
   version="1.1"
   viewBox="0 0 24 24"
   height="24"
   width="24">
  <metadata
     id="metadata10">
    <rdf:RDF>
      <cc:Work
         rdf:about="">
        <dc:format>image/svg+xml</dc:format>
        <dc:type
           rdf:resource="http://purl.org/dc/dcmitype/StillImage" />
        <dc:title></dc:title>
      </cc:Work>
    </rdf:RDF>
  </metadata>
  <defs
     id="defs8" />
  <path
     style="fill:#ffffff"
     id="path2"
     d="M17 3v-2c0-.552.447-1 1-1s1 .448 1 1v2c0 .552-.447 1-1 1s-1-.448-1-1zm-12 1c.553 0 1-.448 1-1v-2c0-.552-.447-1-1-1-.553 0-1 .448-1 1v2c0 .552.447 1 1 1zm13 13v-3h-1v4h3v-1h-2zm-5 .5c0 2.481 2.019 4.5 4.5 4.5s4.5-2.019 4.5-4.5-2.019-4.5-4.5-4.5-4.5 2.019-4.5 4.5zm11 0c0 3.59-2.91 6.5-6.5 6.5s-6.5-2.91-6.5-6.5 2.91-6.5 6.5-6.5 6.5 2.91 6.5 6.5zm-14.237 3.5h-7.763v-13h19v1.763c.727.33 1.399.757 2 1.268v-9.031h-3v1c0 1.316-1.278 2.339-2.658 1.894-.831-.268-1.342-1.111-1.342-1.984v-.91h-9v1c0 1.316-1.278 2.339-2.658 1.894-.831-.268-1.342-1.111-1.342-1.984v-.91h-3v21h11.031c-.511-.601-.938-1.273-1.268-2z" />
</svg>
